<svg xmlns="http://www.w3.org/2000/svg" xmlns:xlink="http://www.w3.org/1999/xlink" viewBox="0 0 314.28 332.89"><defs><style>.cls-1{fill:none;}.cls-2{isolation:isolate;}.cls-3{fill:#fd672d;}.cls-4{clip-path:url(#clip-path);}.cls-5{fill:#eead8b;}.cls-6{fill:#ccc;}.cls-6,.cls-9{mix-blend-mode:multiply;}.cls-7{fill:#fff;}.cls-8{fill:#e0120e;}.cls-9{fill:#b3b3b3;}.cls-10{fill:#071219;}.cls-11{fill:#040b0f;}.cls-12{fill:#751501;}.cls-13{fill:#8c1a00;}</style><clipPath id="clip-path"><path class="cls-1" d="M209.47,176.57a52.33,52.33,0,1,1-52.33-52.34A52.33,52.33,0,0,1,209.47,176.57Z"/></clipPath></defs><title>profileicon</title><g class="cls-2"><g id="Layer_1" data-name="Layer 1"><path class="cls-3" d="M209.47,176.57a52.33,52.33,0,1,1-52.33-52.34A52.33,52.33,0,0,1,209.47,176.57Z"/><g class="cls-4"><rect class="cls-5" x="148.67" y="192.14" width="16.88" height="8.88"/><path class="cls-6" d="M153.39,199a16,16,0,0,0,7.44-2.09,13.36,13.36,0,0,0,4.09-3.51c.2-.27.43-.57.63-.89v-.32H148.67v6.65A39.26,39.26,0,0,0,153.39,199Z"/><path class="cls-5" d="M157.12,143.36h0c-10.79.31-19,4.74-19,20,0,9.06.85,11.73,3.49,22.07,1.83,7.16,11.55,10.93,15.25,11.18l.25,0,.25,0c3.7-.25,13.42-4,15.25-11.18,2.64-10.34,3.46-13,3.49-22.07C176.14,148.1,167.9,143.67,157.12,143.36Z"/><path class="cls-5" d="M174,168.59l-1.18,9c4.64,2,5.36-8.58,5.36-8.58C177.14,166.39,174,168.59,174,168.59Z"/><path class="cls-5" d="M135.44,170.12s.73,10.62,5.36,8.58l-1.18-9S136.51,167.47,135.44,170.12Z"/><path class="cls-5" d="M165.7,202.11,188.5,208s7.78,1.19,9.77,8.19l3.4,12.67H112.61l3.4-12.67c2-7,9.77-8.19,9.77-8.19l22.74-5.93Z"/><path class="cls-7" d="M112.61,228.9l3.4-12.67c2-7,9.77-8.19,9.77-8.19l22.74-5.93H165.7L188.5,208s7.78,1.19,9.77,8.19l3.4,12.67"/><polygon class="cls-8" points="158.61 201.02 157.16 201.02 157.11 201.02 155.67 201.02 151.5 207.61 155.23 211.81 157.11 211.81 157.16 211.81 159.05 211.81 162.78 207.61 158.61 201.02"/><path class="cls-9" d="M159.22,211a11.78,11.78,0,0,1-2.85-10h-.7l-4.17,6.59,3.73,4.2h3.82l.46-.52Z"/><polygon class="cls-9" points="165.58 196.87 157.07 201.31 162.68 209.75 172.85 203.62 165.58 196.87"/><polygon class="cls-7" points="165.58 196.87 157.07 201.31 162.78 208.62 172.3 203.12 165.58 196.87"/><polygon class="cls-9" points="148.62 196.58 157.07 201.02 151.52 209.46 141.35 203.34 148.62 196.58"/><polygon class="cls-7" points="148.62 196.58 157.13 201.02 151.42 208.34 141.91 202.83 148.62 196.58"/><path class="cls-10" d="M142,203.81,125.78,208s-7.78,1.19-9.77,8.19l-3.4,12.67h89.06l-3.4-12.67c-2-7-9.77-8.19-9.77-8.19l-17-4.88-14.42,25.11Z"/><polygon class="cls-8" points="155.17 211.81 153.13 220.79 157.07 227.19 160.75 220.78 158.98 211.81 155.17 211.81"/><polygon class="cls-11" points="142.01 203.81 134.32 205.82 138.66 207.5 135.98 210.54 151.5 228.9 157.52 228.9 142.01 203.81"/><polygon class="cls-11" points="171.5 202.08 179.96 204.51 175.62 206.41 178.3 209.46 162.79 227.82 156.76 227.82 171.5 202.08"/><path class="cls-12" d="M138.37,169.72l1.69,10.14,1.4.91-1.4-14.24,2.4-5.68.58-4.68.07,0c1.72-6,15-5.29,15-5.29,15.77.33,13.64,11.29,13.64,11.29l2.32,4.92-1.4,14.24,1.4-.91,1.68-10.14c2.55-5.58,1-18.54,1-18.54s-1.92-5.27-6-5.88c0,0-1.91-8.84-14.46-7.24,0,0-11.67,2.7-15.48-4.06,0,0-.15,4.55,2.31,6.14,0,0-2.5-1.47-2.9-2.82,0,0,.18,2.83,1.72,3.82-.77-.46-3.61-2.28-4.63-4.93,0,0-.81,4.3,2.51,6.63,0,0-4.56-2.57-4.37-5.52,0,0-1.42,6,2.68,7.49,0,0-1.51,1.1-5.07-3.07,0,0-1,7.13,4,7.86C137.1,150.12,135.1,154.17,138.37,169.72Zm3.76-27.95h0Z"/><path class="cls-13" d="M138.33,155.76c.34.12,1.25.85,1.83,1.1,0-1.87-.59-3.76-.46-5.75a30.69,30.69,0,0,0,3.16,1.29,4.65,4.65,0,0,1-1-3.25c1.42-.18,2.56,1,3.9.95.12-1-.29-2-.22-3,2.09.33,4.26,1.23,6.36,1.57a16,16,0,0,1-1.19-2.56c2.64.52,5.29,1.35,8,1.82-.23-.71-1-1.34-1-2.18,2.8-.29,5.89,2.16,8.55,2.79A3.28,3.28,0,0,1,165,147a30.1,30.1,0,0,1,5.37,3.42,5.46,5.46,0,0,1-.68-.68c.78.61,1.57,1.23,2.29,1.9-.82-2-3.45-2.68-4-4.83a4.59,4.59,0,0,0,1.27,1.29c-.71-1.64-2.71-3-4-4.16a4.88,4.88,0,0,0-1.94-1.28,25.65,25.65,0,0,0,2,3c-1.23-.82-2.55-2.38-4-2.66.16.93,1.15,1.81,1.45,2.69-1.88-.82-3.54-3.72-5.63-3.91.28.5.71,1.06.95,1.55-1.06-.68-3.06-1.76-4.37-1.55a5.53,5.53,0,0,0,1.2,2.67c-1.52-.64-3-2.15-4.78-2.18.41.47,1,.85,1.42,1.32-1.14,0-4.39-1.75-5.36-.94-.67.55.16,1.29.24,2.06-.7-.34-3.09-2-3.93-1.23s.92,1.83,1.09,2.57c-1.19-.23-2.24-1.06-3.51-1,.15.58.71,1,1.05,1.56-.78-.06-1.47-.63-2.28-.43a3.49,3.49,0,0,0,.06,1.29c-.35-.13-.78-.33-1.17-.47a11.51,11.51,0,0,1,.71,1.57l-.22,0a3.37,3.37,0,0,1,.46,1.66c-.19-.15-.51-.19-.7-.32-.14.95.14,2,.09,2.93-.06,0-.24,0-.32,0,.24.17.32.4.54.57l-.19.05a3,3,0,0,1,0,3,2.73,2.73,0,0,1,.39-.91"/></g></g></g></svg>